<svg xmlns="http://www.w3.org/2000/svg" xmlns:xlink="http://www.w3.org/1999/xlink" xmlns:lucid="lucid" width="1008.5" height="441.57"><g transform="translate(-307.5590551181102 -220.9448818897638)" lucid:page-tab-id="0_0"><path d="M705.5 242.94c0-1.1.9-2 2-2h310.97c1.1 0 2 .9 2 2v397.58c0 1.1-.9 2-2 2H707.5c-1.1 0-2-.9-2-2z" fill="#ede7f6"/><use xlink:href="#a" transform="matrix(1,0,0,1,721.5118110236219,256.9448818897638) translate(0 16.69921875)"/><use xlink:href="#b" transform="matrix(1,0,0,1,721.5118110236219,256.9448818897638) translate(60.50390625 16.69921875)"/><use xlink:href="#c" transform="matrix(1,0,0,1,721.5118110236219,256.9448818897638) translate(115.400390625 16.69921875)"/><use xlink:href="#d" transform="matrix(1,0,0,1,721.5118110236219,256.9448818897638) translate(142.4619140625 16.69921875)"/><g filter="url(#e)"><path d="M327.56 308.98c0-1.1.9-2 2-2h84c1.1 0 2 .9 2 2v124c0 1.1-.9 2-2 2h-84c-1.1 0-2-.9-2-2z" fill="#fff"/><path d="M383.56 347.98c2.5 0 4.6-.88 6.36-2.64 1.76-1.76 2.64-3.88 2.64-6.36 0-2.5-.88-4.6-2.64-6.37-1.76-1.74-3.87-2.62-6.36-2.62-2.5 0-4.6.88-6.36 2.63-1.76 1.77-2.64 3.9-2.64 6.38s.88 4.6 2.64 6.36c1.75 1.76 3.87 2.64 6.36 2.64zm-24 0c2.5 0 4.6-.88 6.36-2.64 1.76-1.76 2.64-3.88 2.64-6.36 0-2.5-.88-4.6-2.64-6.37-1.75-1.74-3.87-2.62-6.36-2.62-2.5 0-4.6.88-6.36 2.63-1.76 1.77-2.64 3.9-2.64 6.38s.88 4.6 2.64 6.36c1.75 1.76 3.87 2.64 6.36 2.64zm0 6c-7 0-21 3.5-21 10.5v7.5h42v-7.5c0-7-14-10.5-21-10.5zm24 0c-.87 0-1.86.06-2.9.15 3.47 2.52 5.9 5.9 5.9 10.35v7.5h18v-7.5c0-7-14-10.5-21-10.5zm0 0" fill="#757575"/><use xlink:href="#f" transform="matrix(1,0,0,1,327.5590551181102,387.9763779527559) translate(8.781665473090307 16.493674045138874)"/><use xlink:href="#g" transform="matrix(1,0,0,1,327.5590551181102,387.9763779527559) translate(21.351581271701413 37.32778862847219)"/></g><g filter="url(#h)"><path d="M492.03 342.98c0-1.1.9-2 2-2h183.4c1.1 0 2 .9 2 2v56c0 1.1-.9 2-2 2h-183.4c-1.1 0-2-.9-2-2z" fill="#fff"/><path d="M522.03 350.98c-5.52 0-10.24 1.95-14.14 5.85-3.92 3.9-5.87 8.62-5.87 14.15 0 5.52 1.95 10.24 5.86 14.14 3.9 3.9 8.6 5.86 14.13 5.86 5.53 0 10.24-1.96 14.15-5.86 3.9-3.9 5.85-8.62 5.85-14.14 0-5.53-1.95-10.24-5.85-14.15-3.9-3.9-8.62-5.85-14.15-5.85zm11.25 30h-8.75v-6.25h2.5v-2.5h-10v2.5h2.5v6.25h-8.75v-6.25h3.75v-3.75c0-.35.13-.64.37-.9.24-.23.54-.35.88-.35h5v-2.5h-3.75v-6.25h10v6.25h-3.75v2.5h5c.35 0 .64.12.88.36.25.24.37.53.37.88v3.75h3.75z" fill="#757575"/><use xlink:href="#i" transform="matrix(1,0,0,1,552.0314960629921,360.9763779527559) translate(0 16.69921875)"/><use xlink:href="#j" transform="matrix(1,0,0,1,552.0314960629921,360.9763779527559) translate(44.349609375 16.69921875)"/></g><path d="M730.7 304.36c0-1.1.9-2 2-2h254c1.1 0 2 .9 2 2v207c0 1.1-.9 2-2 2h-254c-1.1 0-2-.9-2-2z" fill="#e8f5e9"/><use xlink:href="#k" transform="matrix(1,0,0,1,746.7086614173228,318.3622047244094) translate(0 16.69921875)"/><use xlink:href="#l" transform="matrix(1,0,0,1,746.7086614173228,318.3622047244094) translate(82.037109375 16.69921875)"/><g filter="url(#m)"><path d="M750.7 355.36c0-1.1.9-2 2-2h212c1.1 0 2 .9 2 2v56c0 1.1-.9 2-2 2h-212c-1.1 0-2-.9-2-2z" fill="#fff"/><path d="M774.64 389.43h12.14V377.3h-12.14v12.14zm3.1-8.57c0-.13.06-.23.14-.32.1-.1.2-.14.33-.15h5c.1 0 .2 0 .27.06.08.05.15.1.2.2.04.07.06.16.06.25v4.96c0 .1-.02.2-.07.27-.04.08-.1.14-.2.2-.07.04-.16.06-.25.06h-5c-.13-.03-.24-.08-.33-.18-.1-.1-.14-.22-.14-.36z" fill="#757575"/><path d="M780.7 363.36c-5.52 0-10.23 1.95-14.14 5.86-3.9 3.9-5.85 8.62-5.85 14.14 0 5.53 1.96 10.24 5.86 14.15 3.9 3.9 8.62 5.86 14.15 5.86 5.53 0 10.25-1.95 14.15-5.85 3.9-3.9 5.86-8.6 5.86-14.14 0-5.52-1.94-10.24-5.85-14.14-3.9-3.9-8.62-5.86-14.14-5.86zm10.68 16.17c0 .12-.05.23-.14.32-.08.1-.2.13-.32.14h-2.4v1.3c0 .65.55 1.2 1.2 1.2h1.2c.13 0 .24.03.34.13.1.1.14.2.14.33v.77c0 .12-.06.23-.14.32-.1.1-.2.13-.33.14h-2.4v1.3c0 .65.54 1.2 1.2 1.2h1.2c.12 0 .23.03.33.13s.14.2.14.33v.77c0 .12-.06.23-.14.32-.1.1-.2.13-.33.14h-2.4v2.2c0 .1-.02.2-.07.27-.04.08-.1.15-.2.2-.07.04-.16.07-.25.07h-2.23v2.4c0 .1-.05.22-.14.3-.1.1-.2.14-.32.15h-.76c-.08 0-.15-.03-.22-.07-.08-.04-.14-.1-.18-.18-.04-.07-.06-.14-.06-.22v-1.18c0-.65-.52-1.18-1.17-1.18h-.12c-.66 0-1.2.54-1.2 1.2v1.2c0 .08-.02.15-.06.22-.04.07-.1.12-.17.16-.07.04-.15.07-.23.07h-.8c-.08 0-.16-.03-.23-.07-.08-.04-.14-.1-.18-.17-.04-.08-.06-.15-.06-.24v-1.2c0-.65-.54-1.2-1.2-1.2h-.1c-.67 0-1.2.55-1.2 1.2v1.2c0 .13-.05.24-.14.33-.1.07-.2.12-.32.13h-.8c-.12 0-.23-.06-.32-.14-.08-.1-.13-.2-.14-.34v-1.27c0-.63-.5-1.13-1.1-1.13h-1.13c-.08 0-.18-.02-.26-.06-.08-.04-.14-.1-.2-.2-.04-.07-.06-.16-.06-.25v-1.1c0-.63-.5-1.12-1.1-1.12h-1.28c-.1 0-.16-.03-.24-.07-.07-.04-.12-.1-.16-.17-.04-.08-.07-.15-.07-.24v-.76c0-.1.03-.16.07-.23.04-.07.1-.13.16-.17.08-.04.15-.06.24-.06h2.38v-1.3c0-.67-.53-1.2-1.2-1.2h-1.18c-.13 0-.24-.05-.33-.15-.1-.1-.14-.2-.14-.34v-.8c0-.1.05-.22.14-.3.1-.1.2-.15.33-.15h2.38v-1.3c0-.66-.53-1.2-1.2-1.2h-1.18c-.13 0-.24-.03-.33-.12-.1-.1-.14-.2-.14-.33v-.8c0-.12.05-.22.14-.32.1-.1.2-.13.33-.13h2.38v-2.24c0-.1.02-.18.07-.26.05-.08.1-.15.2-.2.07-.04.17-.06.26-.06h1.13c.6 0 1.1-.5 1.1-1.12v-1.27c.02-.13.07-.24.15-.32.1-.1.2-.14.33-.14h.77c.13 0 .24.04.33.13.1.1.13.2.13.33v1.2c0 .66.54 1.2 1.2 1.2h.1c.67 0 1.2-.55 1.2-1.2v-1.2c0-.14.05-.25.15-.34.1-.1.2-.13.33-.13h.78c.13 0 .24.04.33.13.1.08.14.2.14.32v1.2c0 .66.54 1.2 1.2 1.2h.1c.67 0 1.2-.54 1.2-1.2v-1.2c0-.13.06-.24.14-.32.1-.1.2-.14.33-.14h.77c.13 0 .24.04.33.13.08.08.13.2.13.32v1.28c0 .62.5 1.12 1.12 1.12h1.12c.1 0 .18.02.26.07.08.05.15.1.2.2.04.07.07.16.07.25v1.12c0 .6.5 1.1 1.1 1.1h1.28c.13 0 .24.05.34.13.1.1.14.2.14.33v.38c0 .22-.1.24-.2.07z" fill="#757575"/><use xlink:href="#k" transform="matrix(1,0,0,1,810.7086614173228,373.3622047244094) translate(0 16.69921875)"/><use xlink:href="#n" transform="matrix(1,0,0,1,810.7086614173228,373.3622047244094) translate(82.037109375 16.69921875)"/></g><g filter="url(#m)"><path d="M750.7 435.36c0-1.1.9-2 2-2h212c1.1 0 2 .9 2 2v56c0 1.1-.9 2-2 2h-212c-1.1 0-2-.9-2-2z" fill="#fff"/><path d="M774.64 469.43h12.14V457.3h-12.14v12.14zm3.1-8.57c0-.13.06-.23.14-.32.1-.1.2-.14.33-.15h5c.1 0 .2 0 .27.06.08.05.15.1.2.2.04.07.06.16.06.25v4.96c0 .1-.02.2-.07.27-.04.08-.1.14-.2.2-.07.04-.16.06-.25.06h-5c-.13-.03-.24-.08-.33-.18-.1-.1-.14-.22-.14-.36z" fill="#757575"/><path d="M780.7 443.36c-5.52 0-10.23 1.95-14.14 5.86-3.9 3.9-5.85 8.62-5.85 14.14 0 5.53 1.96 10.24 5.86 14.15 3.9 3.9 8.62 5.86 14.15 5.86 5.53 0 10.25-1.95 14.15-5.85 3.9-3.9 5.86-8.6 5.86-14.14 0-5.52-1.94-10.24-5.85-14.14-3.9-3.9-8.62-5.86-14.14-5.86zm10.68 16.17c0 .12-.05.23-.14.32-.08.1-.2.13-.32.14h-2.4v1.3c0 .65.55 1.2 1.2 1.2h1.2c.13 0 .24.03.34.13.1.1.14.2.14.33v.77c0 .12-.06.23-.14.32-.1.1-.2.13-.33.14h-2.4v1.3c0 .65.54 1.2 1.2 1.2h1.2c.12 0 .23.03.33.13s.14.2.14.33v.77c0 .12-.06.23-.14.32-.1.1-.2.13-.33.14h-2.4v2.2c0 .1-.02.2-.07.27-.04.08-.1.15-.2.2-.07.04-.16.07-.25.07h-2.23v2.4c0 .1-.05.22-.14.3-.1.1-.2.14-.32.15h-.76c-.08 0-.15-.03-.22-.07-.08-.04-.14-.1-.18-.18-.04-.07-.06-.14-.06-.22v-1.18c0-.65-.52-1.18-1.17-1.18h-.12c-.66 0-1.2.54-1.2 1.2v1.2c0 .08-.02.15-.06.22-.04.07-.1.12-.17.16-.07.04-.15.07-.23.07h-.8c-.08 0-.16-.03-.23-.07-.08-.04-.14-.1-.18-.17-.04-.08-.06-.15-.06-.24v-1.2c0-.65-.54-1.2-1.2-1.2h-.1c-.67 0-1.2.55-1.2 1.2v1.2c0 .13-.05.24-.14.33-.1.07-.2.12-.32.13h-.8c-.12 0-.23-.06-.32-.14-.08-.1-.13-.2-.14-.34v-1.27c0-.63-.5-1.13-1.1-1.13h-1.13c-.08 0-.18-.02-.26-.06-.08-.04-.14-.1-.2-.2-.04-.07-.06-.16-.06-.25v-1.1c0-.63-.5-1.12-1.1-1.12h-1.28c-.1 0-.16-.03-.24-.07-.07-.04-.12-.1-.16-.17-.04-.08-.07-.15-.07-.24v-.76c0-.1.03-.16.07-.23.04-.07.1-.13.16-.17.08-.04.15-.06.24-.06h2.38v-1.3c0-.67-.53-1.2-1.2-1.2h-1.18c-.13 0-.24-.05-.33-.15-.1-.1-.14-.2-.14-.34v-.8c0-.1.05-.22.14-.3.1-.1.2-.15.33-.15h2.38v-1.3c0-.66-.53-1.2-1.2-1.2h-1.18c-.13 0-.24-.03-.33-.12-.1-.1-.14-.2-.14-.33v-.8c0-.12.05-.22.14-.32.1-.1.2-.13.33-.13h2.38v-2.24c0-.1.02-.18.07-.26.05-.08.1-.15.2-.2.07-.04.17-.06.26-.06h1.13c.6 0 1.1-.5 1.1-1.12v-1.27c.02-.13.07-.24.15-.32.1-.1.2-.14.33-.14h.77c.13 0 .24.04.33.13.1.1.13.2.13.33v1.2c0 .66.54 1.2 1.2 1.2h.1c.67 0 1.2-.55 1.2-1.2v-1.2c0-.14.05-.25.15-.34.1-.1.2-.13.33-.13h.78c.13 0 .24.04.33.13.1.08.14.2.14.32v1.2c0 .66.54 1.2 1.2 1.2h.1c.67 0 1.2-.54 1.2-1.2v-1.2c0-.13.06-.24.14-.32.1-.1.2-.14.33-.14h.77c.13 0 .24.04.33.13.08.08.13.2.13.32v1.28c0 .62.5 1.12 1.12 1.12h1.12c.1 0 .18.02.26.07.08.05.15.1.2.2.04.07.07.16.07.25v1.12c0 .6.5 1.1 1.1 1.1h1.28c.13 0 .24.05.34.13.1.1.14.2.14.33v.38c0 .22-.1.24-.2.07z" fill="#757575"/><use xlink:href="#o" transform="matrix(1,0,0,1,810.7086614173228,453.3622047244094) translate(0 16.69921875)"/><use xlink:href="#p" transform="matrix(1,0,0,1,810.7086614173228,453.3622047244094) translate(64.705078125 16.69921875)"/></g><g filter="url(#e)"><path d="M492.03 455.54c0-1.1.9-2 2-2h84c1.1 0 2 .9 2 2v124c0 1.1-.9 2-2 2h-84c-1.1 0-2-.9-2-2z" fill="#fff"/><path d="M536.03 482.54v-12h-30v54h60v-42zm-18 36h-6v-6h6zm0-12h-6v-6h6zm0-12h-6v-6h6zm0-12h-6v-6h6zm12 36h-6v-6h6zm0-12h-6v-6h6zm0-12h-6v-6h6zm0-12h-6v-6h6zm30 36h-24v-6h6v-6h-6v-6h6v-6h-6v-6h24zm-6-24h-6v6h6zm0 12h-6v6h6z" fill="#757575"/><use xlink:href="#q" transform="matrix(1,0,0,1,492.0314960629921,534.5433070866142) translate(10.922174316406256 20.24462890625)"/><use xlink:href="#r" transform="matrix(1,0,0,1,492.0314960629921,534.5433070866142) translate(27.553865234375003 35.87041015625)"/></g><path d="M680.43 370.98h28.64c3.3 0 6 2.68 6 6v.38c0 3.32 2.7 6 6 6h11.14" stroke="#5e5e5e" stroke-width="2" fill="none"/><path d="M680.46 371.98h-1.03v-2h1.03z" fill="#5e5e5e"/><path d="M747.47 383.36L733.2 388v-9.27z" stroke="#5e5e5e" stroke-width="2" fill="#5e5e5e"/><path d="M858.7 414.36v.5" stroke="#5e5e5e" stroke-width="2" fill="none"/><path d="M859.7 414.4h-2v-1.04h2z" fill="#5e5e5e"/><path d="M858.7 430.13l-4.63-14.27h9.27z" stroke="#5e5e5e" stroke-width="2" fill="#5e5e5e"/><path d="M416.56 370.98h56.97" stroke="#5e5e5e" stroke-width="2" fill="none"/><path d="M416.58 371.98h-1.02v-2h1.02z" fill="#5e5e5e"/><path d="M488.8 370.98l-14.27 4.63v-9.26z" stroke="#5e5e5e" stroke-width="2" fill="#5e5e5e"/><use xlink:href="#s" transform="matrix(1,0,0,1,426.61194310151234,345.6430446194226) translate(0 14.222222222222223)"/><path d="M749.7 463.36h-78.33c-3.3 0-6 2.7-6 6v42.18c0 3.32-2.7 6-6 6h-60.84" stroke="#5e5e5e" stroke-width="2" fill="none"/><path d="M750.7 464.36h-1.02v-2h1.03z" fill="#5e5e5e"/><path d="M583.27 517.54l14.26-4.63v9.28z" stroke="#5e5e5e" stroke-width="2" fill="#5e5e5e"/><path d="M1045.67 242.94c0-1.1.9-2 2-2h246.4c1.1 0 2 .9 2 2v136c0 1.1-.9 2-2 2h-246.4c-1.1 0-2-.9-2-2z" fill="#ede7f6"/><use xlink:href="#a" transform="matrix(1,0,0,1,1061.6692913385825,256.9448818897638) translate(0 16.69921875)"/><use xlink:href="#b" transform="matrix(1,0,0,1,1061.6692913385825,256.9448818897638) translate(60.50390625 16.69921875)"/><use xlink:href="#c" transform="matrix(1,0,0,1,1061.6692913385825,256.9448818897638) translate(115.400390625 16.69921875)"/><use xlink:href="#t" transform="matrix(1,0,0,1,1061.6692913385825,256.9448818897638) translate(142.4619140625 16.69921875)"/><g filter="url(#u)"><path d="M1081.9 304.36c0-1.1.9-2 2-2h180.56c1.1 0 2 .9 2 2v56c0 1.1-.9 2-2 2H1083.9c-1.1 0-2-.9-2-2z" fill="#fff"/><path d="M1104.4 331.1h2.5v2.5h-2.5zM1108.77 332.36c0-.7.56-1.25 1.25-1.25.7 0 1.25.57 1.25 1.26 0 .7-.56 1.25-1.25 1.25-.7 0-1.25-.55-1.25-1.24z" fill="#757575"/><path d="M1111.9 312.36c-5.53 0-10.25 1.95-14.15 5.86-3.9 3.9-5.86 8.62-5.86 14.14 0 5.53 1.94 10.24 5.85 14.15 3.9 3.9 8.62 5.86 14.14 5.86 5.5 0 10.23-1.95 14.13-5.85 3.9-3.9 5.86-8.6 5.86-14.14 0-5.52-1.96-10.24-5.87-14.14-3.9-3.9-8.62-5.86-14.14-5.86zm11.24 22.5c0 .7-.25 1.28-.73 1.77-.48.5-1.07.73-1.76.73h-17.5c-.7 0-1.28-.24-1.77-.73-.48-.5-.73-1.08-.73-1.77v-5c0-.7.25-1.28.73-1.77.5-.5 1.08-.74 1.77-.74h17.5c.7 0 1.28.25 1.77.73.5.48.74 1.07.74 1.76z" fill="#757575"/><path d="M1113.14 332.36c0-.7.56-1.25 1.25-1.25.68 0 1.24.57 1.24 1.26 0 .7-.56 1.25-1.25 1.25-.7 0-1.26-.55-1.26-1.24z" fill="#757575"/><use xlink:href="#v" transform="matrix(1,0,0,1,1141.8897637795271,322.3622047244094) translate(0 16.69921875)"/><use xlink:href="#t" transform="matrix(1,0,0,1,1141.8897637795271,322.3622047244094) translate(35.1298828125 16.69921875)"/></g><path d="M1045.67 405.15c0-1.1.9-2 2-2h246.4c1.1 0 2 .9 2 2v136c0 1.1-.9 2-2 2h-246.4c-1.1 0-2-.9-2-2z" fill="#ede7f6"/><use xlink:href="#a" transform="matrix(1,0,0,1,1061.6692913385825,419.14960629921256) translate(0 16.69921875)"/><use xlink:href="#b" transform="matrix(1,0,0,1,1061.6692913385825,419.14960629921256) translate(60.50390625 16.69921875)"/><use xlink:href="#c" transform="matrix(1,0,0,1,1061.6692913385825,419.14960629921256) translate(115.400390625 16.69921875)"/><use xlink:href="#w" transform="matrix(1,0,0,1,1061.6692913385825,419.14960629921256) translate(142.4619140625 16.69921875)"/><g filter="url(#u)"><path d="M1081.9 464.38c0-1.1.9-2 2-2h180.56c1.1 0 2 .9 2 2v56c0 1.1-.9 2-2 2H1083.9c-1.1 0-2-.9-2-2z" fill="#fff"/><path d="M1111.9 472.38c-5.53 0-10.25 1.95-14.15 5.85-3.9 3.9-5.86 8.62-5.86 14.15 0 5.52 1.94 10.24 5.85 14.14 3.9 3.9 8.62 5.86 14.14 5.86 5.5 0 10.23-1.95 14.13-5.86 3.9-3.9 5.86-8.62 5.86-14.14 0-5.53-1.96-10.24-5.87-14.15-3.9-3.9-8.62-5.85-14.14-5.85zm7.13 11.07c.5 0 .9.18 1.26.53.34.35.5.77.5 1.26 0 .5-.16.92-.5 1.27-.36.35-.78.53-1.27.53-.5 0-.92-.18-1.27-.52s-.52-.77-.52-1.26c0-.32.08-.62.24-.9.16-.27.38-.5.65-.65.28-.17.58-.25.9-.25zm-14.28 17.85c-.5 0-.9-.17-1.26-.52s-.53-.77-.53-1.27c0-.48.17-.9.52-1.25.34-.35.76-.52 1.25-.52.5 0 .92.17 1.27.52s.52.77.52 1.26c0 .33-.08.63-.24.9-.16.3-.38.5-.65.66-.28.16-.58.24-.9.24zm-1.78-5.35c-.84 0-1.58-.25-2.24-.77-.66-.52-1.07-1.2-1.26-2-.2-.8-.1-1.6.26-2.35s.92-1.3 1.67-1.67c.75-.37 1.53-.45 2.35-.27.8.17 1.48.6 2 1.25s.78 1.4.78 2.23c0 .98-.35 1.83-1.04 2.52-.7.7-1.55 1.05-2.53 1.05zm1.78-8.92c-.5 0-.9-.18-1.26-.52s-.53-.77-.53-1.26c0-.5.17-.9.52-1.26.34-.35.76-.53 1.25-.53.5 0 .92.18 1.27.53.35.35.52.77.52 1.26 0 .5-.18.9-.53 1.26-.33.35-.75.5-1.25.5zm7.14 17.85c-1 0-1.84-.35-2.54-1.05-.7-.7-1.05-1.54-1.05-2.53 0-1 .36-1.83 1.06-2.53.7-.7 1.54-1.04 2.53-1.04.98 0 1.82.34 2.52 1.04s1.05 1.54 1.05 2.53c0 .64-.16 1.24-.48 1.8-.33.54-.77.98-1.32 1.3-.55.32-1.15.48-1.8.48zm-2.7-12.5c0-.63.2-1.18.6-1.67.4-.48.9-.8 1.5-.93.6-.14 1.2-.08 1.75.2.56.27.98.68 1.25 1.25.27.56.34 1.15.2 1.75-.14.6-.45 1.1-.94 1.5-.5.4-1.05.58-1.67.58-.75 0-1.38-.26-1.9-.78-.53-.52-.8-1.15-.8-1.9zm2.7-5.37c-1 0-1.84-.33-2.54-1.03s-1.05-1.54-1.05-2.53c0-1 .36-1.83 1.06-2.53.7-.7 1.54-1.03 2.53-1.03.98 0 1.82.34 2.52 1.04s1.05 1.55 1.05 2.54c0 .64-.16 1.24-.48 1.8-.33.54-.77.98-1.32 1.3-.55.32-1.15.47-1.8.47zm7.13 14.3c-.5 0-.92-.17-1.27-.52s-.52-.77-.52-1.27c0-.48.17-.9.52-1.25s.77-.52 1.27-.52.9.17 1.26.52c.34.35.5.77.5 1.26 0 .33-.07.63-.23.9-.16.3-.37.5-.65.66-.27.16-.57.24-.9.24zm1.78-5.36c-.82 0-1.56-.26-2.2-.78-.67-.52-1.1-1.2-1.27-2-.18-.8-.1-1.6.27-2.35.36-.74.92-1.3 1.67-1.66.75-.36 1.54-.45 2.35-.26.8.2 1.48.6 2 1.27.52.65.77 1.4.77 2.23 0 .64-.17 1.23-.5 1.8-.3.54-.75.97-1.3 1.3-.55.3-1.15.47-1.8.47z" fill="#757575"/><use xlink:href="#v" transform="matrix(1,0,0,1,1141.8897637795271,482.37795275590554) translate(0 16.69921875)"/><use xlink:href="#w" transform="matrix(1,0,0,1,1141.8897637795271,482.37795275590554) translate(35.1298828125 16.69921875)"/></g><g filter="url(#x)"><path d="M793.7 556.33c0-1.1.9-2 2-2h154.17c1.1 0 2 .9 2 2v56c0 1.1-.9 2-2 2H795.7c-1.1 0-2-.9-2-2z" fill="#fff"/><path d="M803.7 584.33c0-11.04 8.96-20 20-20s20 8.96 20 20-8.96 20-20 20-20-8.96-20-20z" fill="#757575"/><use xlink:href="#v" transform="matrix(1,0,0,1,853.7007874015746,574.3307086614172) translate(0 16.69921875)"/><use xlink:href="#d" transform="matrix(1,0,0,1,853.7007874015746,574.3307086614172) translate(35.1298828125 16.69921875)"/></g><g filter="url(#x)"><path d="M783.9 543.73c0-1.1.9-2 2-2H940.1c1.1 0 2 .9 2 2v56c0 1.1-.9 2-2 2H785.9c-1.1 0-2-.9-2-2z" fill="#fff"/><path d="M793.9 571.73c0-11.04 8.96-20 20-20 11.05 0 20 8.96 20 20 0 11.05-8.95 20-20 20-11.04 0-20-8.95-20-20z" fill="#757575"/><use xlink:href="#v" transform="matrix(1,0,0,1,843.9055118110234,561.7322834645669) translate(0 16.69921875)"/><use xlink:href="#d" transform="matrix(1,0,0,1,843.9055118110234,561.7322834645669) translate(35.1298828125 16.69921875)"/></g><path d="M968.7 396.8c0 .54-.44 1-1 1-.54 0-1-.46-1-1 0-.56.46-1 1-1 .56 0 1 .44 1 1zm4 .27c0 .56-.44 1-1 1-.55 0-1-.44-1-1 0-.55.45-1 1-1 .56 0 1 .45 1 1zm3.94.73c0 .55-.45 1-1 1s-1-.45-1-1c0-.56.45-1 1-1s1 .44 1 1zm3.83 1.16c0 .55-.45 1-1 1s-1-.45-1-1 .45-1 1-1 1 .45 1 1zm3.67 1.6c0 .57-.45 1-1 1-.56 0-1-.43-1-1 0-.54.44-1 1-1 .55 0 1 .46 1 1zm3.44 2.06c0 .55-.45 1-1 1s-1-.45-1-1 .45-1 1-1 1 .45 1 1zm3.18 2.43c0 .55-.45 1-1 1s-1-.45-1-1 .45-1 1-1 1 .45 1 1zm2.88 2.78c0 .55-.44 1-1 1-.55 0-1-.45-1-1 0-.56.45-1 1-1 .56 0 1 .44 1 1zm2.6 3.04c0 .56-.45 1-1 1s-1-.44-1-1c0-.55.45-1 1-1s1 .45 1 1zm2.3 3.28c0 .55-.44 1-1 1-.54 0-1-.45-1-1 0-.56.46-1 1-1 .56 0 1 .44 1 1zm2.04 3.45c0 .55-.45 1-1 1s-1-.45-1-1c0-.56.45-1 1-1s1 .44 1 1zm1.78 3.58c0 .56-.45 1-1 1s-1-.44-1-1c0-.55.45-1 1-1s1 .45 1 1zm1.55 3.7c0 .55-.44 1-1 1-.55 0-1-.45-1-1s.45-1 1-1c.56 0 1 .45 1 1zm1.35 3.77c0 .56-.45 1-1 1-.56 0-1-.44-1-1 0-.55.44-1 1-1 .55 0 1 .45 1 1zm1.12 3.85c0 .55-.45 1-1 1s-1-.45-1-1 .45-1 1-1 1 .45 1 1zm.95 3.9c0 .54-.44 1-1 1-.55 0-1-.46-1-1 0-.56.45-1 1-1 .56 0 1 .44 1 1zm.8 3.9c0 .57-.45 1-1 1-.56 0-1-.43-1-1 0-.54.44-1 1-1 .55 0 1 .46 1 1zm.63 3.97c0 .55-.44 1-1 1-.55 0-1-.45-1-1s.45-1 1-1c.56 0 1 .45 1 1zm.5 3.97c0 .56-.44 1-1 1-.55 0-1-.44-1-1 0-.55.45-1 1-1 .56 0 1 .45 1 1zm.35 4c0 .55-.45 1-1 1-.56 0-1-.45-1-1 0-.56.44-1 1-1 .55 0 1 .44 1 1zm.22 4c0 .55-.45 1-1 1s-1-.45-1-1c0-.56.45-1 1-1s1 .44 1 1zm.13 4c0 .55-.45 1-1 1s-1-.45-1-1c0-.56.45-1 1-1s1 .44 1 1zm0 4c0 .55-.45 1-1 1-.56 0-1-.45-1-1s.44-1 1-1c.55 0 1 .45 1 1zm-.13 4c0 .56-.44 1-1 1-.55 0-1-.44-1-1 0-.55.45-1 1-1 .56 0 1 .45 1 1zm-.18 4c0 .56-.45 1-1 1-.56 0-1-.44-1-1 0-.55.44-1 1-1 .55 0 1 .45 1 1zm-.34 4c0 .55-.45 1-1 1s-1-.45-1-1 .45-1 1-1 1 .45 1 1zm-.4 3.98c0 .56-.46 1-1 1-.56 0-1-.44-1-1 0-.55.44-1 1-1 .54 0 1 .45 1 1zm-.5 3.98c0 .55-.46 1-1 1-.56 0-1-.45-1-1s.44-1 1-1c.54 0 1 .45 1 1zm-.63 3.95c0 .56-.45 1-1 1s-1-.44-1-1c0-.55.45-1 1-1s1 .45 1 1zm-.67 3.95c0 .56-.45 1-1 1s-1-.44-1-1c0-.55.45-1 1-1s1 .45 1 1zm-.82 3.92c0 .56-.45 1-1 1-.56 0-1-.44-1-1 0-.55.44-1 1-1 .55 0 1 .45 1 1zm-.87 3.92c0 .55-.43 1-1 1-.54 0-1-.45-1-1 0-.56.46-1 1-1 .57 0 1 .44 1 1zm-.98 3.88c0 .55-.45 1-1 1s-1-.45-1-1c0-.56.45-1 1-1s1 .44 1 1zm-1.07 3.86c0 .55-.45 1-1 1s-1-.45-1-1c0-.56.45-1 1-1s1 .44 1 1zm-1.16 3.83c0 .56-.46 1-1 1-.56 0-1-.44-1-1 0-.54.44-1 1-1 .54 0 1 .46 1 1zm-1.3 3.8c0 .56-.44 1-1 1-.55 0-1-.44-1-1 0-.55.45-1 1-1 .56 0 1 .45 1 1zm-1.34 3.78c0 .55-.45 1-1 1s-1-.45-1-1c0-.56.45-1 1-1s1 .44 1 1zm-1.48 3.72c0 .55-.44 1-1 1-.55 0-1-.45-1-1s.45-1 1-1c.56 0 1 .45 1 1zm-1.58 3.68c0 .55-.45 1-1 1s-1-.45-1-1 .45-1 1-1 1 .45 1 1zm-1.67 3.64c0 .55-.45 1-1 1-.56 0-1-.45-1-1s.44-1 1-1c.55 0 1 .45 1 1zm-1.78 3.6c0 .54-.45 1-1 1-.56 0-1-.46-1-1 0-.56.44-1 1-1 .55 0 1 .44 1 1zm-1.93 3.5c0 .55-.45 1-1 1s-1-.45-1-1 .45-1 1-1 1 .45 1 1zm-2.05 3.44c0 .56-.44 1-1 1-.55 0-1-.44-1-1 0-.55.45-1 1-1 .56 0 1 .45 1 1zm-2.17 3.37c0 .55-.44 1-1 1-.55 0-1-.45-1-1s.45-1 1-1c.56 0 1 .45 1 1zm-2.3 3.28c0 .56-.45 1-1 1s-1-.44-1-1c0-.55.45-1 1-1s1 .45 1 1zm-2.44 3.18c0 .55-.45 1-1 1-.56 0-1-.45-1-1s.44-1 1-1c.55 0 1 .45 1 1zm-2.6 3.05c0 .56-.44 1-1 1-.55 0-1-.44-1-1 0-.55.45-1 1-1 .56 0 1 .45 1 1zm-2.76 2.9c0 .55-.45 1-1 1s-1-.45-1-1 .45-1 1-1 1 .45 1 1zm-2.92 2.75c0 .55-.45 1-1 1s-1-.45-1-1c0-.56.45-1 1-1s1 .44 1 1zm-3.08 2.55c0 .55-.45 1-1 1-.56 0-1-.45-1-1s.44-1 1-1c.55 0 1 .45 1 1zm-3.25 2.34c0 .55-.45 1-1 1-.56 0-1-.45-1-1s.44-1 1-1c.55 0 1 .45 1 1zm-3.43 2.08c0 .55-.44 1-1 1-.55 0-1-.45-1-1s.45-1 1-1c.56 0 1 .45 1 1zm-3.58 1.8c0 .55-.44 1-1 1-.55 0-1-.45-1-1 0-.56.45-1 1-1 .56 0 1 .44 1 1z" fill="#5e5e5e"/><path d="M967.76 395.8l-.04 2-1-.03v-2z" fill="#5e5e5e"/><path d="M943.47 571.48l5.7-8.22 9.06 5.55-6.54 8.38z" stroke="#5e5e5e" stroke-width="2" fill="#fff"/><g filter="url(#u)"><path d="M1069.3 291.76c0-1.1.9-2 2-2h180.56c1.1 0 2 .9 2 2v56c0 1.1-.9 2-2 2H1071.3c-1.1 0-2-.9-2-2z" fill="#fff"/><path d="M1091.8 318.52h2.5v2.5h-2.5zM1096.17 319.77c0-.7.56-1.25 1.25-1.25.7 0 1.25.56 1.25 1.25 0 .7-.56 1.25-1.25 1.25-.7 0-1.25-.56-1.25-1.25z" fill="#757575"/><path d="M1099.3 299.76c-5.53 0-10.25 1.96-14.15 5.86-3.9 3.9-5.86 8.62-5.86 14.14 0 5.53 1.94 10.24 5.85 14.15 3.9 3.9 8.62 5.86 14.14 5.86 5.52 0 10.23-1.95 14.14-5.85 3.9-3.9 5.85-8.6 5.85-14.14 0-5.52-1.96-10.24-5.86-14.14-3.9-3.9-8.62-5.86-14.15-5.86zm11.24 22.5c0 .7-.24 1.28-.73 1.77-.48.5-1.06.73-1.76.73h-17.5c-.7 0-1.28-.24-1.76-.73-.5-.5-.74-1.07-.74-1.77v-5c0-.7.25-1.28.74-1.76.48-.5 1.07-.74 1.76-.74h17.5c.7 0 1.28.25 1.77.74.5.48.74 1.07.74 1.76z" fill="#757575"/><path d="M1100.54 319.77c0-.7.56-1.25 1.25-1.25.68 0 1.24.56 1.24 1.25 0 .7-.56 1.25-1.25 1.25-.7 0-1.26-.56-1.26-1.25z" fill="#757575"/><use xlink:href="#v" transform="matrix(1,0,0,1,1129.2913385826764,309.76377952755905) translate(0 16.69921875)"/><use xlink:href="#t" transform="matrix(1,0,0,1,1129.2913385826764,309.76377952755905) translate(35.1298828125 16.69921875)"/></g><g filter="url(#u)"><path d="M1069.3 455.54c0-1.1.9-2 2-2h180.56c1.1 0 2 .9 2 2v56c0 1.1-.9 2-2 2H1071.3c-1.1 0-2-.9-2-2z" fill="#fff"/><path d="M1099.3 463.54c-5.53 0-10.25 1.96-14.15 5.86-3.9 3.9-5.86 8.62-5.86 14.14 0 5.53 1.94 10.24 5.85 14.15 3.9 3.9 8.62 5.84 14.14 5.84 5.52 0 10.23-1.95 14.14-5.85 3.9-3.92 5.85-8.63 5.85-14.16 0-5.52-1.96-10.24-5.86-14.14-3.9-3.9-8.62-5.86-14.15-5.86zm7.13 11.08c.5 0 .9.18 1.26.52.34.35.52.78.52 1.27 0 .5-.18.92-.53 1.27-.36.35-.78.52-1.27.52-.5 0-.92-.18-1.27-.53-.34-.35-.52-.77-.52-1.26 0-.3.08-.6.24-.9.16-.26.38-.48.66-.64.27-.16.57-.24.9-.24zm-14.27 17.85c-.5 0-.92-.18-1.27-.53-.36-.34-.53-.77-.53-1.26 0-.5.17-.92.52-1.26.34-.35.76-.53 1.26-.53s.9.17 1.26.52c.35.34.52.77.52 1.26 0 .32-.08.62-.24.9-.16.27-.38.5-.65.65-.28.16-.57.24-.9.24zm-1.8-5.35c-.83 0-1.57-.26-2.23-.78-.65-.52-1.07-1.18-1.26-2-.2-.8-.1-1.6.26-2.34.36-.75.92-1.3 1.67-1.68.75-.36 1.54-.45 2.35-.26.8.18 1.48.6 2 1.25.52.66.78 1.4.78 2.24 0 1-.35 1.83-1.04 2.53-.7.7-1.55 1.05-2.53 1.05zm1.8-8.92c-.5 0-.92-.18-1.27-.53-.36-.35-.53-.77-.53-1.26 0-.48.17-.9.52-1.26.34-.34.76-.52 1.26-.52s.9.18 1.26.52c.35.35.52.78.52 1.27 0 .5-.18.92-.52 1.26-.35.35-.77.52-1.26.52zm7.13 17.84c-1 0-1.84-.34-2.54-1.04s-1.04-1.54-1.04-2.53c0-1 .34-1.83 1.04-2.53.7-.7 1.54-1.04 2.53-1.04.98 0 1.82.34 2.52 1.04s1.05 1.54 1.05 2.53c0 .64-.16 1.23-.48 1.8-.33.54-.77.97-1.32 1.3-.55.3-1.15.47-1.8.47zm-2.68-12.5c0-.62.2-1.18.58-1.66.4-.5.9-.8 1.5-.94.6-.14 1.2-.08 1.75.2.57.26.98.68 1.25 1.24.28.57.34 1.15.2 1.76-.14.6-.45 1.1-.94 1.5-.5.38-1.04.58-1.67.58-.75 0-1.38-.26-1.9-.78-.52-.53-.78-1.16-.78-1.9zm2.67-5.36c-1 0-1.84-.34-2.54-1.04s-1.04-1.54-1.04-2.53c0-.98.34-1.82 1.04-2.52s1.54-1.05 2.53-1.05c.98 0 1.82.35 2.52 1.05.7.7 1.05 1.54 1.05 2.53 0 .65-.16 1.24-.48 1.8-.33.55-.77.98-1.32 1.3-.55.32-1.15.48-1.8.48zm7.13 14.3c-.5 0-.92-.2-1.27-.54-.34-.34-.52-.77-.52-1.26 0-.5.18-.92.52-1.26.35-.35.78-.53 1.27-.53.5 0 .9.17 1.26.52.34.34.52.77.52 1.26 0 .32-.08.62-.24.9-.16.27-.38.5-.66.65-.27.16-.57.24-.9.24zm1.8-5.37c-.85 0-1.6-.26-2.24-.78-.66-.52-1.08-1.18-1.27-2-.18-.8-.1-1.6.27-2.34.36-.76.92-1.3 1.67-1.67.75-.35 1.54-.44 2.35-.25.8.2 1.48.6 2 1.26.52.67.78 1.4.77 2.24 0 .64-.17 1.24-.5 1.8-.3.54-.74.98-1.3 1.3-.55.32-1.14.48-1.78.48z" fill="#757575"/><use xlink:href="#v" transform="matrix(1,0,0,1,1129.2913385826764,473.54330708661416) translate(0 16.69921875)"/><use xlink:href="#w" transform="matrix(1,0,0,1,1129.2913385826764,473.54330708661416) translate(35.1298828125 16.69921875)"/></g><path d="M968.7 370.75c0 .55-.44 1-1 1-.54 0-1-.45-1-1s.46-1 1-1c.56 0 1 .45 1 1zm3.98-.16c0 .54-.45 1-1 1s-1-.46-1-1c0-.57.45-1 1-1s1 .43 1 1zm3.96-.4c0 .55-.45 1-1 1-.56 0-1-.45-1-1s.44-1 1-1c.55 0 1 .45 1 1zm3.92-.63c0 .56-.45 1-1 1s-1-.44-1-1c0-.55.45-1 1-1s1 .45 1 1zm3.87-.92c0 .55-.45 1-1 1s-1-.45-1-1 .45-1 1-1 1 .45 1 1zm3.8-1.17c0 .55-.45 1-1 1-.56 0-1-.45-1-1s.44-1 1-1c.55 0 1 .45 1 1zm3.7-1.47c0 .56-.46 1-1 1-.56 0-1-.44-1-1 0-.54.44-1 1-1 .54 0 1 .46 1 1zm3.57-1.7c0 .55-.44 1-1 1-.55 0-1-.45-1-1 0-.56.45-1 1-1 .56 0 1 .44 1 1zm3.45-2c0 .56-.45 1-1 1-.56 0-1-.44-1-1 0-.54.44-1 1-1 .55 0 1 .46 1 1zm3.3-2.2c0 .56-.44 1-1 1-.54 0-1-.44-1-1 0-.54.46-1 1-1 .56 0 1 .46 1 1zm3.2-2.37c0 .55-.46 1-1 1-.56 0-1-.45-1-1s.44-1 1-1c.54 0 1 .45 1 1zm3.05-2.54c0 .54-.45 1-1 1s-1-.46-1-1c0-.56.45-1 1-1s1 .44 1 1zm2.95-2.67c0 .56-.44 1-1 1-.55 0-1-.44-1-1 0-.55.45-1 1-1 .56 0 1 .45 1 1zm2.88-2.74c0 .54-.44 1-1 1-.55 0-1-.46-1-1 0-.56.45-1 1-1 .56 0 1 .44 1 1zm2.88-2.75c0 .55-.44 1-1 1-.54 0-1-.45-1-1s.46-1 1-1c.56 0 1 .45 1 1zm2.87-2.76c0 .54-.45 1-1 1s-1-.46-1-1c0-.57.45-1 1-1s1 .43 1 1zm2.86-2.78c0 .56-.45 1-1 1s-1-.44-1-1c0-.55.45-1 1-1s1 .45 1 1zm2.86-2.76c0 .55-.46 1-1 1-.57 0-1-.45-1-1s.43-1 1-1c.54 0 1 .45 1 1zm2.9-2.72c0 .56-.46 1-1 1-.56 0-1-.44-1-1 0-.55.44-1 1-1 .54 0 1 .45 1 1zm3-2.58c0 .56-.44 1-1 1-.54 0-1-.44-1-1 0-.55.46-1 1-1 .56 0 1 .45 1 1zm3.16-2.42c0 .55-.45 1-1 1s-1-.45-1-1 .45-1 1-1 1 .45 1 1zm3.3-2.24c0 .55-.46 1-1 1-.57 0-1-.45-1-1s.43-1 1-1c.54 0 1 .45 1 1zm3.4-2.04c0 .56-.45 1-1 1s-1-.44-1-1c0-.55.45-1 1-1s1 .45 1 1zm3.54-1.8c0 .55-.45 1-1 1s-1-.45-1-1 .45-1 1-1 1 .45 1 1zm3.67-1.53c0 .56-.45 1-1 1s-1-.44-1-1c0-.55.45-1 1-1s1 .45 1 1zm3.77-1.26c0 .55-.45 1-1 1s-1-.45-1-1 .45-1 1-1 1 .45 1 1zm3.85-.97c0 .55-.46 1-1 1-.56 0-1-.45-1-1 0-.56.44-1 1-1 .54 0 1 .44 1 1z" fill="#5e5e5e"/><path d="M967.76 371.75l-1.05.02v-2l1-.02z" fill="#5e5e5e"/><path d="M1067.9 319.92l-6.26 7.8-8.66-6.15 7.1-7.9z" stroke="#5e5e5e" stroke-width="2" fill="#fff"/><path d="M968.7 383.4c0 .54-.44 1-1 1-.54 0-1-.46-1-1 0-.57.46-1 1-1 .56 0 1 .43 1 1zm3.97.3c0 .56-.44 1-1 1-.55 0-1-.44-1-1 0-.55.45-1 1-1 .56 0 1 .45 1 1zm3.9.8c0 .54-.44 1-1 1-.55 0-1-.46-1-1 0-.56.45-1 1-1 .56 0 1 .44 1 1zm3.78 1.23c0 .55-.44 1-1 1-.55 0-1-.45-1-1 0-.56.45-1 1-1 .56 0 1 .44 1 1zm3.6 1.67c0 .55-.44 1-1 1-.54 0-1-.45-1-1s.46-1 1-1c.56 0 1 .45 1 1zm3.4 2.07c0 .55-.44 1-1 1-.54 0-1-.45-1-1 0-.56.46-1 1-1 .56 0 1 .44 1 1zm3.2 2.4c0 .54-.46 1-1 1-.56 0-1-.46-1-1 0-.57.44-1 1-1 .54 0 1 .43 1 1zm2.96 2.64c0 .56-.44 1-1 1-.54 0-1-.44-1-1 0-.55.46-1 1-1 .56 0 1 .45 1 1zm2.76 2.9c0 .54-.45 1-1 1-.56 0-1-.46-1-1 0-.56.44-1 1-1 .55 0 1 .44 1 1zm2.56 3.03c0 .55-.44 1-1 1-.55 0-1-.45-1-1s.45-1 1-1c.56 0 1 .45 1 1zm2.4 3.17c0 .55-.44 1-1 1-.55 0-1-.45-1-1s.45-1 1-1c.56 0 1 .45 1 1zm2.27 3.27c0 .55-.46 1-1 1-.56 0-1-.45-1-1s.44-1 1-1c.54 0 1 .45 1 1zm2.15 3.34c0 .57-.45 1-1 1s-1-.43-1-1c0-.54.45-1 1-1s1 .46 1 1zm2.02 3.44c0 .55-.45 1-1 1s-1-.45-1-1 .45-1 1-1 1 .45 1 1zm1.98 3.46c0 .55-.45 1-1 1-.56 0-1-.45-1-1 0-.56.44-1 1-1 .55 0 1 .44 1 1zm1.84 3.52c0 .56-.46 1-1 1-.56 0-1-.44-1-1 0-.55.44-1 1-1 .54 0 1 .45 1 1zm1.84 3.53c0 .55-.45 1-1 1-.56 0-1-.45-1-1s.44-1 1-1c.55 0 1 .45 1 1zm1.84 3.53c0 .55-.45 1-1 1s-1-.45-1-1 .45-1 1-1 1 .45 1 1zm1.83 3.53c0 .56-.43 1-1 1-.54 0-1-.44-1-1 0-.54.46-1 1-1 .57 0 1 .46 1 1zm1.82 3.56c0 .55-.44 1-1 1-.55 0-1-.45-1-1 0-.56.45-1 1-1 .56 0 1 .44 1 1zm1.82 3.54c0 .55-.45 1-1 1-.56 0-1-.45-1-1s.44-1 1-1c.55 0 1 .45 1 1zm1.8 3.54c0 .56-.44 1-1 1-.55 0-1-.44-1-1 0-.55.45-1 1-1 .56 0 1 .45 1 1zm1.82 3.55c0 .54-.45 1-1 1s-1-.46-1-1c0-.56.45-1 1-1s1 .44 1 1zm1.8 3.53c0 .55-.44 1-1 1-.54 0-1-.45-1-1s.46-1 1-1c.56 0 1 .45 1 1zm1.82 3.55c0 .55-.45 1-1 1s-1-.45-1-1c0-.56.45-1 1-1s1 .44 1 1zm1.9 3.5c0 .54-.44 1-1 1-.54 0-1-.46-1-1 0-.57.46-1 1-1 .56 0 1 .43 1 1zm2.03 3.4c0 .57-.43 1-1 1-.54 0-1-.43-1-1 0-.54.46-1 1-1 .57 0 1 .46 1 1zm2.13 3.38c0 .56-.45 1-1 1s-1-.44-1-1c0-.55.45-1 1-1s1 .45 1 1zm2.22 3.3c0 .56-.45 1-1 1s-1-.44-1-1c0-.55.45-1 1-1s1 .45 1 1zm2.36 3.2c0 .56-.44 1-1 1-.54 0-1-.44-1-1 0-.54.46-1 1-1 .56 0 1 .46 1 1zm2.54 3.08c0 .55-.45 1-1 1s-1-.45-1-1 .45-1 1-1 1 .45 1 1zm2.7 2.92c0 .55-.44 1-1 1-.54 0-1-.45-1-1s.46-1 1-1c.56 0 1 .45 1 1zm2.9 2.72c0 .55-.44 1-1 1-.54 0-1-.45-1-1s.46-1 1-1c.56 0 1 .45 1 1zm3.13 2.47c0 .56-.45 1-1 1-.56 0-1-.44-1-1 0-.55.44-1 1-1 .55 0 1 .45 1 1zm3.34 2.16c0 .56-.44 1-1 1-.54 0-1-.44-1-1 0-.55.46-1 1-1 .56 0 1 .45 1 1zm3.57 1.78c0 .56-.45 1-1 1s-1-.44-1-1c0-.55.45-1 1-1s1 .45 1 1z" fill="#5e5e5e"/><path d="M967.76 382.4l-.05 2-1-.04v-2z" fill="#5e5e5e"/><path d="M1067.9 486.86l-8.4 5.4-6.24-8.6 9.25-5.22z" stroke="#5e5e5e" stroke-width="2" fill="#fff"/><defs><path d="M631-137c179 0 314-70 314-231 0-71-25-127-75-166s-141-77-272-115c-165-47-285-106-360-175s-112-154-112-255c0-245 231-397 495-397 206 0 369 89 449 218 43 68 65 142 65 223H942c0-184-129-283-321-283-172 0-299 76-301 236 0 59 26 109 76 150s135 78 256 113c205 59 345 116 436 256 35 53 50 119 50 193-2 256-231 398-507 390C333 12 90-129 80-422h193c0 187 160 285 358 285" id="y"/><path d="M491 20c-241-1-355-148-355-398v-704h185v699c0 164 67 246 200 246 141 0 235-53 282-158v-787h185V0H812l-4-107C736-22 630 20 491 20" id="z"/><path d="M634-1102c292 0 422 254 422 573 0 298-143 547-420 549-137 0-242-48-317-145L310 0H140v-1536h185v573c75-93 178-139 309-139zm-44 965c207 0 281-175 281-413 0-224-79-395-283-395-122 0-210 57-263 170v468c57 113 145 170 265 170" id="A"/><path d="M589-945c-131 0-219 81-264 174V0H140v-1082h175l6 136c83-104 191-156 324-156 229 0 346 129 346 387V0H806v-716c-2-153-65-229-217-229" id="B"/><path d="M599-131c141 0 220-65 285-146l113 88C906-50 770 20 589 20 281 21 93-214 93-545c0-223 93-397 233-485 74-48 154-72 240-72 300 2 449 218 445 537v77H278c0 197 129 357 321 357zm227-509c-3-180-88-310-260-310-170 0-264 140-282 310h542" id="C"/><path d="M456 20C285 20 205-92 206-268v-671H9v-143h197v-262h185v262h202v143H391v671c-9 125 92 149 207 118V0c-49 13-96 20-142 20" id="D"/><g id="a"><use transform="matrix(0.0087890625,0,0,0.0087890625,0,0)" xlink:href="#y"/><use transform="matrix(0.0087890625,0,0,0.0087890625,10.6787109375,0)" xlink:href="#z"/><use transform="matrix(0.0087890625,0,0,0.0087890625,20.6015625,0)" xlink:href="#A"/><use transform="matrix(0.0087890625,0,0,0.0087890625,30.7001953125,0)" xlink:href="#B"/><use transform="matrix(0.0087890625,0,0,0.0087890625,40.6318359375,0)" xlink:href="#C"/><use transform="matrix(0.0087890625,0,0,0.0087890625,50.16796875,0)" xlink:href="#D"/></g><path d="M1161-1018c0 201-122 330-278 388l342 618V0h-206L703-589H361V0H168v-1456h482c310-2 511 139 511 438zm-193 0c0-187-120-280-313-280H361v552h295c179 3 313-101 312-272" id="E"/><path d="M561-1102c238-4 403 126 403 351v498c0 99 13 178 38 237V0H808c-11-21-19-59-26-114C696-25 593 20 474 20c-199 0-368-130-365-320 4-251 214-359 490-356h180v-85c-1-135-86-212-229-212-115 0-232 67-233 171H131c20-205 206-316 430-320zM294-326c0 117 90 185 207 185 122 0 239-75 278-162v-222H634c-227 0-340 66-340 199" id="F"/><path d="M521 20C240 20 96-239 96-550c0-303 147-552 427-552 132 0 235 47 309 140l9-120h169V-26c4 277-183 454-459 452-165-1-334-81-400-187l96-111c79 98 176 147 291 147 180 1 288-109 286-290v-93C750-23 649 20 521 20zm48-965c-209 0-287 178-287 416 0 217 86 392 285 392 117 0 202-53 257-159v-494c-57-103-142-155-255-155" id="G"/><g id="b"><use transform="matrix(0.0087890625,0,0,0.0087890625,0,0)" xlink:href="#E"/><use transform="matrix(0.0087890625,0,0,0.0087890625,11.0830078125,0)" xlink:href="#F"/><use transform="matrix(0.0087890625,0,0,0.0087890625,20.8740234375,0)" xlink:href="#B"/><use transform="matrix(0.0087890625,0,0,0.0087890625,30.8056640625,0)" xlink:href="#G"/><use transform="matrix(0.0087890625,0,0,0.0087890625,40.904296875,0)" xlink:href="#C"/></g><path d="M704-1390c-164-38-297 28-288 194v114h231v143H416V0H231v-939H60v-143h171v-111c-12-274 208-416 483-347" id="H"/><path d="M584 20C278 26 81-227 91-551c10-320 175-545 491-551 308-5 503 247 494 573-9 322-175 543-492 549zm-2-970c-208 0-305 185-305 421 0 216 106 398 307 398 211 0 307-186 307-420 0-214-109-399-309-399" id="I"/><path d="M663-916c-163-27-288 18-338 148V0H140v-1082h180l3 125c61-97 147-145 258-145 36 0 63 5 82 14v172" id="J"/><g id="c"><use transform="matrix(0.0087890625,0,0,0.0087890625,0,0)" xlink:href="#H"/><use transform="matrix(0.0087890625,0,0,0.0087890625,6.2490234375,0)" xlink:href="#I"/><use transform="matrix(0.0087890625,0,0,0.0087890625,16.5146484375,0)" xlink:href="#J"/></g><path d="M1216-1011c-1 297-202 441-512 441H361V0H169v-1456h537c297-6 510 164 510 445zm-192 2c1-178-126-288-307-289H361v571h345c196 1 318-92 318-282" id="K"/><path d="M520 20C244 20 95-247 95-550c0-298 151-550 427-552 127 0 227 43 301 130v-564h185V0H838l-9-116C755-25 652 20 520 20zm48-965c-210 0-288 177-288 416 0 218 87 392 286 392 117 0 203-53 257-158v-497c-55-102-140-153-255-153" id="L"/><path d="M538-131c121 0 232-49 232-156 0-50-20-88-56-117-73-60-334-92-420-143-92-55-162-110-162-238 0-190 192-317 400-317 223 0 414 129 413 338H759c0-108-110-186-227-186-119 0-215 53-215 159 0 45 18 78 53 101 76 52 331 90 416 139 98 57 169 115 169 251C955-92 760 20 538 20c-176 0-314-68-386-174-38-55-57-115-57-179h185c6 129 116 202 258 202" id="M"/><g id="d"><use transform="matrix(0.0087890625,0,0,0.0087890625,0,0)" xlink:href="#K"/><use transform="matrix(0.0087890625,0,0,0.0087890625,11.2412109375,0)" xlink:href="#I"/><use transform="matrix(0.0087890625,0,0,0.0087890625,21.5068359375,0)" xlink:href="#L"/><use transform="matrix(0.0087890625,0,0,0.0087890625,31.658203125,0)" xlink:href="#M"/></g><path d="M1240-945c-141 0-250 95-250 227V0H804v-709c0-157-77-236-231-236-121 0-204 52-249 155V0H139v-1082h175l5 120c79-93 186-140 321-140 151 0 254 58 309 174 69-98 181-174 345-174 237 0 362 126 362 377V0h-185v-714c-2-159-67-231-231-231" id="N"/><path d="M341 0H156v-1082h185V0zm-91-1264c-68 0-108-42-109-105 0-62 41-107 109-107s110 44 110 107-42 105-110 105" id="O"/><g id="f"><use transform="matrix(0.008680881076388881,0,0,0.008680881076388881,0,0)" xlink:href="#E"/><use transform="matrix(0.008680881076388881,0,0,0.008680881076388881,10.946591037326378,0)" xlink:href="#I"/><use transform="matrix(0.008680881076388881,0,0,0.008680881076388881,21.08586013454859,0)" xlink:href="#F"/><use transform="matrix(0.008680881076388881,0,0,0.008680881076388881,30.756361653645804,0)" xlink:href="#N"/><use transform="matrix(0.008680881076388881,0,0,0.008680881076388881,46.33854318576385,0)" xlink:href="#O"/><use transform="matrix(0.008680881076388881,0,0,0.008680881076388881,50.65294108072912,0)" xlink:href="#B"/><use transform="matrix(0.008680881076388881,0,0,0.008680881076388881,60.462336697048556,0)" xlink:href="#G"/></g><path d="M665-137c214 0 337-121 336-332v-987h193v990c-3 300-218 486-529 486-309 0-526-181-525-484v-992h190v986c-1 210 123 333 335 333" id="P"/><g id="g"><use transform="matrix(0.008680881076388881,0,0,0.008680881076388881,0,0)" xlink:href="#P"/><use transform="matrix(0.008680881076388881,0,0,0.008680881076388881,11.528210069444434,0)" xlink:href="#M"/><use transform="matrix(0.008680881076388881,0,0,0.008680881076388881,20.69522048611109,0)" xlink:href="#C"/><use transform="matrix(0.008680881076388881,0,0,0.008680881076388881,30.113976453993025,0)" xlink:href="#J"/><use transform="matrix(0.008680881076388881,0,0,0.008680881076388881,36.12982703993052,0)" xlink:href="#M"/></g><filter id="e" filterUnits="objectBoundingBox" x="-.02" y="0" width="1.03" height="1.02"><feOffset result="offOut" in="SourceAlpha" dy="1"/><feGaussianBlur result="blurOut" in="offOut" stdDeviation=".75"/><feColorMatrix result="colorOut" in="blurOut" values="0 0 0 0 0 0 0 0 0 0 0 0 0 0 0 0 0 0 0.4 0"/><feBlend in="SourceGraphic" in2="colorOut"/></filter><path d="M362-157h690V0H169v-1456h193v1299" id="Q"/><g id="i"><use transform="matrix(0.0087890625,0,0,0.0087890625,0,0)" xlink:href="#Q"/><use transform="matrix(0.0087890625,0,0,0.0087890625,9.685546875,0)" xlink:href="#I"/><use transform="matrix(0.0087890625,0,0,0.0087890625,19.951171875,0)" xlink:href="#F"/><use transform="matrix(0.0087890625,0,0,0.0087890625,29.7421875,0)" xlink:href="#L"/></g><path d="M1160-420C1159-145 963 0 674 0H169v-1456h476c294-1 476 112 476 388 0 153-99 253-216 302 146 38 255 167 255 346zM678-157c171 2 289-95 289-261 0-175-95-263-286-263H361v524h317zm250-912c-2-172-104-229-283-229H361v463h290c157 3 278-84 277-234" id="R"/><path d="M341 0H156v-1536h185V0" id="S"/><path d="M277-555c0 244 77 420 297 424 127 2 249-93 255-210h175C980-127 805 20 574 20 258 20 81-222 92-562c11-319 164-533 481-540 237-5 426 165 431 392H829c-7-133-115-242-256-240-209 4-296 166-296 395" id="T"/><g id="j"><use transform="matrix(0.0087890625,0,0,0.0087890625,0,0)" xlink:href="#R"/><use transform="matrix(0.0087890625,0,0,0.0087890625,11.2060546875,0)" xlink:href="#F"/><use transform="matrix(0.0087890625,0,0,0.0087890625,20.9970703125,0)" xlink:href="#S"/><use transform="matrix(0.0087890625,0,0,0.0087890625,25.365234375,0)" xlink:href="#F"/><use transform="matrix(0.0087890625,0,0,0.0087890625,35.15625,0)" xlink:href="#B"/><use transform="matrix(0.0087890625,0,0,0.0087890625,45.087890625,0)" xlink:href="#T"/><use transform="matrix(0.0087890625,0,0,0.0087890625,54.509765625,0)" xlink:href="#C"/><use transform="matrix(0.0087890625,0,0,0.0087890625,64.0458984375,0)" xlink:href="#J"/></g><filter id="h" filterUnits="objectBoundingBox" x="-.01" y="-.01" width="1.02" height="1.05"><feOffset result="offOut" in="SourceAlpha" dy="1"/><feGaussianBlur result="blurOut" in="offOut" stdDeviation=".75"/><feColorMatrix result="colorOut" in="blurOut" values="0 0 0 0 0 0 0 0 0 0 0 0 0 0 0 0 0 0 0.4 0"/><feBlend in="SourceGraphic" in2="colorOut"/></filter><path d="M703-1476c426 0 599 333 586 795-11 408-187 701-584 701-422 0-587-333-587-793 0-282 106-507 280-617 89-56 190-86 305-86zm2 1333c312 0 393-279 393-632 0-308-116-536-395-536-269 0-394 232-394 523v107c-4 298 123 538 396 538" id="U"/><path d="M632-1102c291 0 422 251 422 573 0 297-141 548-419 549-131 0-235-42-310-125v521H140v-1498h169l9 120c75-93 180-140 314-140zm-53 971c207 0 290-180 290-419 0-218-92-395-292-395-112 0-196 50-252 149v517c55 99 140 148 254 148" id="V"/><path d="M651-255l416-1201h210L737 0H567L28-1456h209" id="W"/><path d="M1288 0h-193L362-1122V0H169v-1456h193l735 1127v-1127h191V0" id="X"/><g id="k"><use transform="matrix(0.0087890625,0,0,0.0087890625,0,0)" xlink:href="#U"/><use transform="matrix(0.0087890625,0,0,0.0087890625,12.375,0)" xlink:href="#V"/><use transform="matrix(0.0087890625,0,0,0.0087890625,22.4736328125,0)" xlink:href="#C"/><use transform="matrix(0.0087890625,0,0,0.0087890625,32.009765625,0)" xlink:href="#B"/><use transform="matrix(0.0087890625,0,0,0.0087890625,41.94140625,0)" xlink:href="#W"/><use transform="matrix(0.0087890625,0,0,0.0087890625,53.3935546875,0)" xlink:href="#K"/><use transform="matrix(0.0087890625,0,0,0.0087890625,64.7490234375,0)" xlink:href="#X"/></g><g id="l"><use transform="matrix(0.0087890625,0,0,0.0087890625,0,0)" xlink:href="#K"/><use transform="matrix(0.0087890625,0,0,0.0087890625,11.2412109375,0)" xlink:href="#I"/><use transform="matrix(0.0087890625,0,0,0.0087890625,21.5068359375,0)" xlink:href="#L"/></g><path d="M497-251l268-831h189L566 0H425L33-1082h189" id="Y"/><g id="n"><use transform="matrix(0.0087890625,0,0,0.0087890625,0,0)" xlink:href="#y"/><use transform="matrix(0.0087890625,0,0,0.0087890625,10.6787109375,0)" xlink:href="#C"/><use transform="matrix(0.0087890625,0,0,0.0087890625,20.21484375,0)" xlink:href="#J"/><use transform="matrix(0.0087890625,0,0,0.0087890625,26.4638671875,0)" xlink:href="#Y"/><use transform="matrix(0.0087890625,0,0,0.0087890625,35.068359375,0)" xlink:href="#C"/><use transform="matrix(0.0087890625,0,0,0.0087890625,44.6044921875,0)" xlink:href="#J"/></g><filter id="m" filterUnits="objectBoundingBox" x="-.01" y="-.01" width="1.01" height="1.05"><feOffset result="offOut" in="SourceAlpha" dy="1"/><feGaussianBlur result="blurOut" in="offOut" stdDeviation=".75"/><feColorMatrix result="colorOut" in="blurOut" values="0 0 0 0 0 0 0 0 0 0 0 0 0 0 0 0 0 0 0.4 0"/><feBlend in="SourceGraphic" in2="colorOut"/></filter><g id="o"><use transform="matrix(0.0087890625,0,0,0.0087890625,0,0)" xlink:href="#y"/><use transform="matrix(0.0087890625,0,0,0.0087890625,10.6787109375,0)" xlink:href="#D"/><use transform="matrix(0.0087890625,0,0,0.0087890625,16.55859375,0)" xlink:href="#z"/><use transform="matrix(0.0087890625,0,0,0.0087890625,26.4814453125,0)" xlink:href="#B"/><use transform="matrix(0.0087890625,0,0,0.0087890625,36.4130859375,0)" xlink:href="#B"/><use transform="matrix(0.0087890625,0,0,0.0087890625,46.3447265625,0)" xlink:href="#C"/><use transform="matrix(0.0087890625,0,0,0.0087890625,55.880859375,0)" xlink:href="#S"/></g><g id="p"><use transform="matrix(0.0087890625,0,0,0.0087890625,0,0)" xlink:href="#y"/><use transform="matrix(0.0087890625,0,0,0.0087890625,10.6787109375,0)" xlink:href="#O"/><use transform="matrix(0.0087890625,0,0,0.0087890625,15.046875,0)" xlink:href="#L"/><use transform="matrix(0.0087890625,0,0,0.0087890625,25.1982421875,0)" xlink:href="#C"/><use transform="matrix(0.0087890625,0,0,0.0087890625,34.734375,0)" xlink:href="#T"/><use transform="matrix(0.0087890625,0,0,0.0087890625,44.15625,0)" xlink:href="#F"/><use transform="matrix(0.0087890625,0,0,0.0087890625,53.947265625,0)" xlink:href="#J"/></g><path d="M483-459l28 192 41-173 288-1016h162l281 1016 40 176 31-196 226-996h193L1420 0h-175L945-1061l-23-111-23 111L588 0H413L61-1456h192" id="Z"/><path d="M442-501L326-380V0H141v-1536h185v929c135-169 291-317 436-475h225L566-630 1036 0H819" id="aa"/><g id="q"><use transform="matrix(0.0065107421875,0,0,0.0065107421875,0,0)" xlink:href="#Z"/><use transform="matrix(0.0065107421875,0,0,0.0065107421875,11.628185546875,0)" xlink:href="#I"/><use transform="matrix(0.0065107421875,0,0,0.0065107421875,19.232732421875,0)" xlink:href="#J"/><use transform="matrix(0.0065107421875,0,0,0.0065107421875,23.7446767578125,0)" xlink:href="#aa"/><use transform="matrix(0.0065107421875,0,0,0.0065107421875,30.5028271484375,0)" xlink:href="#M"/><use transform="matrix(0.0065107421875,0,0,0.0065107421875,37.378170898437496,0)" xlink:href="#V"/><use transform="matrix(0.0065107421875,0,0,0.0065107421875,44.859013671875,0)" xlink:href="#F"/><use transform="matrix(0.0065107421875,0,0,0.0065107421875,52.11198046875,0)" xlink:href="#T"/><use transform="matrix(0.0065107421875,0,0,0.0065107421875,59.091496093749996,0)" xlink:href="#C"/></g><path d="M1222-777c17 480-206 763-650 777H169v-1456h411c408 9 627 269 642 679zm-190 4c3-312-149-522-447-525H361v1141h202c308 0 473-209 469-531v-85" id="ab"/><path d="M973-380H363L226 0H28l556-1456h168L1309 0h-197zM421-538h495l-248-681" id="ac"/><g id="r"><use transform="matrix(0.0065107421875,0,0,0.0065107421875,0,0)" xlink:href="#Q"/><use transform="matrix(0.0065107421875,0,0,0.0065107421875,7.174837890625,0)" xlink:href="#ab"/><use transform="matrix(0.0065107421875,0,0,0.0065107421875,15.782039062499999,0)" xlink:href="#ac"/><use transform="matrix(0.0065107421875,0,0,0.0065107421875,24.480390625,0)" xlink:href="#K"/></g><path fill="#333" d="M238-95c0 69-44 99-111 99C63 4 22-25 22-93v-155h51v151c-1 38 19 59 55 60 90 1 49-130 58-211h52v153" id="ad"/><path fill="#333" d="M24-248c120-7 223 5 221 122C244-46 201 0 124 0H24v-248zM76-40c74 7 117-18 117-86 0-67-45-88-117-82v168" id="ae"/><path fill="#333" d="M24-248c93 1 206-16 204 79-1 75-69 88-152 82V0H24v-248zm52 121c47 0 100 7 100-41 0-47-54-39-100-39v80" id="af"/><g id="s"><use transform="matrix(0.04938271604938272,0,0,0.04938271604938272,0,0)" xlink:href="#ad"/><use transform="matrix(0.04938271604938272,0,0,0.04938271604938272,12.790123456790125,0)" xlink:href="#ae"/><use transform="matrix(0.04938271604938272,0,0,0.04938271604938272,25.58024691358025,0)" xlink:href="#af"/></g><g id="t"><use transform="matrix(0.0087890625,0,0,0.0087890625,0,0)" xlink:href="#y"/><use transform="matrix(0.0087890625,0,0,0.0087890625,10.6787109375,0)" xlink:href="#C"/><use transform="matrix(0.0087890625,0,0,0.0087890625,20.21484375,0)" xlink:href="#J"/><use transform="matrix(0.0087890625,0,0,0.0087890625,26.4638671875,0)" xlink:href="#Y"/><use transform="matrix(0.0087890625,0,0,0.0087890625,35.1826171875,0)" xlink:href="#O"/><use transform="matrix(0.0087890625,0,0,0.0087890625,39.55078125,0)" xlink:href="#T"/><use transform="matrix(0.0087890625,0,0,0.0087890625,48.97265625,0)" xlink:href="#C"/><use transform="matrix(0.0087890625,0,0,0.0087890625,58.5087890625,0)" xlink:href="#M"/></g><path d="M539-677L361-492V0H169v-1456h192v720l647-720h232L667-813 1285 0h-230" id="ag"/><path d="M575-1476c247 0 432 154 429 400-2 161-97 271-213 327 135 56 245 179 247 356 3 257-200 413-463 413-265 0-466-156-463-413 2-176 108-302 243-357-115-56-207-166-209-326-4-246 181-400 429-400zm0 1345c168 0 278-101 278-266 0-161-118-276-280-276-163 0-276 113-276 276 0 167 108 266 278 266zm244-942c0-143-104-251-244-251-146 0-244 102-244 251 0 145 98 248 244 248s244-103 244-248" id="ah"/><g id="v"><use transform="matrix(0.0087890625,0,0,0.0087890625,0,0)" xlink:href="#ag"/><use transform="matrix(0.0087890625,0,0,0.0087890625,11.28515625,0)" xlink:href="#ah"/><use transform="matrix(0.0087890625,0,0,0.0087890625,21.392578125,0)" xlink:href="#M"/></g><filter id="u" filterUnits="objectBoundingBox" x="-.01" y="-.01" width="1.02" height="1.05"><feOffset result="offOut" in="SourceAlpha" dy="1"/><feGaussianBlur result="blurOut" in="offOut" stdDeviation=".75"/><feColorMatrix result="colorOut" in="blurOut" values="0 0 0 0 0 0 0 0 0 0 0 0 0 0 0 0 0 0 0.4 0"/><feBlend in="SourceGraphic" in2="colorOut"/></filter><g id="w"><use transform="matrix(0.0087890625,0,0,0.0087890625,0,0)" xlink:href="#X"/><use transform="matrix(0.0087890625,0,0,0.0087890625,12.83203125,0)" xlink:href="#I"/><use transform="matrix(0.0087890625,0,0,0.0087890625,23.09765625,0)" xlink:href="#L"/><use transform="matrix(0.0087890625,0,0,0.0087890625,33.2490234375,0)" xlink:href="#C"/><use transform="matrix(0.0087890625,0,0,0.0087890625,42.78515625,0)" xlink:href="#M"/></g><filter id="x" filterUnits="objectBoundingBox" x="-.01" y="-.01" width="1.02" height="1.05"><feOffset result="offOut" in="SourceAlpha" dy="1"/><feGaussianBlur result="blurOut" in="offOut" stdDeviation=".75"/><feColorMatrix result="colorOut" in="blurOut" values="0 0 0 0 0 0 0 0 0 0 0 0 0 0 0 0 0 0 0.4 0"/><feBlend in="SourceGraphic" in2="colorOut"/></filter></defs></g></svg>